<?xml version="1.0" encoding="UTF-8"?>
<svg version="1.1" xmlns="http://www.w3.org/2000/svg" width="2000" height="1500">
<path d="M0 0 C660 0 1320 0 2000 0 C2000 495 2000 990 2000 1500 C1340 1500 680 1500 0 1500 C0 1005 0 510 0 0 Z " fill="#FF5630" transform="translate(0,0)"/>
<path d="M0 0 C40.26 0 80.52 0 122 0 C129.94914733 16.4660909 137.8615415 32.90744481 145.51953125 49.50390625 C149.46110366 58.02707765 153.48253282 66.51241682 157.5 75 C162.53939073 85.64878643 167.55349091 96.30767216 172.5 107 C177.78691345 118.42706557 183.15175641 129.81589044 188.53613281 141.19726562 C193.67147236 152.05327283 198.77492983 162.92333415 203.84295654 173.81091309 C209.07127775 185.04005401 214.35861542 196.24081716 219.65661621 207.43722534 C224.93597617 218.59643767 230.15476423 229.78141822 235.33276367 240.98803711 C238.93412434 248.76075393 242.63389736 256.48122565 246.375 264.1875 C252.91481378 277.68312603 259.14267906 291.31204814 265.29234314 304.98899841 C267.26806278 309.3826486 269.26209364 313.7673986 271.265625 318.1484375 C302 385.73881866 302 385.73881866 302 406 C302.66 406 303.32 406 304 406 C304.16721054 405.17909882 304.16721054 405.17909882 304.33779907 404.34161377 C305.50797082 398.81630592 307.01910853 393.51631221 308.8359375 388.171875 C309.11086029 387.3537735 309.38578308 386.535672 309.66903687 385.69277954 C310.56370047 383.04262987 311.46772312 380.39585678 312.375 377.75 C312.68812134 376.83551086 313.00124268 375.92102173 313.32385254 374.9788208 C323.05199538 346.66625995 335.21724845 319.63219502 347.88134766 292.53710938 C349.75696072 288.5237585 351.62123608 284.50534104 353.48046875 280.484375 C365.76585244 253.91777359 378.29126068 227.46436732 390.85961914 201.03076172 C396.11024018 189.98651423 401.344368 178.93463345 406.5625 167.875 C412.3643849 155.57828602 418.17694503 143.28670385 424 131 C429.84283724 118.67114077 435.67680456 106.33814866 441.5 94 C447.69464176 80.87483329 453.90238371 67.75593003 460.11813354 54.64074707 C466.68647692 40.78110172 473.23918859 26.91411721 479.78320312 13.04296875 C480.29958595 11.94870575 480.29958595 11.94870575 480.82640076 10.83233643 C481.46923192 9.47008643 482.11187202 8.10774626 482.75428772 6.74530029 C484.88762608 2.22474784 484.88762608 2.22474784 486 0 C523.62 0 561.24 0 600 0 C598.76180607 3.71458178 597.70596774 6.8392299 596.01977539 10.26342773 C595.6345874 11.05048599 595.24939941 11.83754425 594.85253906 12.64845276 C594.43842773 13.48504929 594.02431641 14.32164581 593.59765625 15.18359375 C593.16412842 16.06728134 592.73060059 16.95096893 592.28393555 17.86143494 C591.35873101 19.74645453 590.43185488 21.63065444 589.50344849 23.51409912 C587.08862226 28.41330627 584.68591585 33.31845652 582.28125 38.22265625 C581.81243912 39.17785156 581.34362823 40.13304687 580.86061096 41.1171875 C577.55662816 47.85204145 574.28470871 54.60057064 571.0625 61.375 C567.07076832 69.76420109 563.04368641 78.1357568 559 86.5 C554.81508263 95.15799367 550.64251675 103.82161179 546.5 112.5 C542.05859918 121.80453702 537.58083939 131.09123364 533.09423828 140.37402344 C529.21182446 148.40761743 525.3436596 156.44777189 521.5 164.5 C517.37730364 173.13621304 513.22616292 181.75847991 509.0625 190.375 C502.68550002 203.57240649 496.33689542 216.78328908 490 230 C483.36504755 243.83836134 476.7147976 257.66913283 470.03765869 271.48718262 C465.73108908 280.40054155 461.44773185 289.32468488 457.18334961 298.25830078 C453.17828922 306.64213961 449.13747368 315.0085585 445.09423828 323.37402344 C441.21182446 331.40761743 437.3436596 339.44777189 433.5 347.5 C429.37730364 356.13621304 425.22616292 364.75847991 421.0625 373.375 C414.68550002 386.57240649 408.33689542 399.78328908 402 413 C395.36504755 426.83836134 388.7147976 440.66913283 382.03765869 454.48718262 C378.17432876 462.48316305 374.32572387 470.48595126 370.5 478.5 C366.37727549 487.13619966 362.22616298 495.75847979 358.0625 504.375 C351.68550002 517.57240649 345.33689542 530.78328908 339 544 C332.36939708 557.82928962 325.7238009 571.65113874 319.05075073 585.45999146 C313.63628061 596.66569976 308.25810686 607.88852905 302.90112305 619.12182617 C302.2783471 620.41985254 301.64385128 621.71229744 301 623 C300.34 623 299.68 623 299 623 C278.41147446 580.8820185 278.41147446 580.8820185 269.26416016 561.65332031 C266.91493711 556.72258333 264.55107928 551.79886737 262.1875 546.875 C261.69314453 545.84503906 261.19878906 544.81507813 260.68945312 543.75390625 C256.50791152 535.04728176 252.30876609 526.34919445 248.10733032 517.65216064 C241.56032864 504.09904894 235.04835113 490.52922498 228.54101562 476.95703125 C222.3918447 464.13325957 216.22537399 451.31802621 210.03765869 438.51281738 C205.73037649 429.5979836 201.44650221 420.67227306 197.18115234 411.73730469 C193.49578375 404.02311851 189.78216629 396.32268829 186.0625 388.625 C179.19609177 374.41474739 172.36423971 360.18806621 165.54101562 345.95703125 C159.71007124 333.79690425 153.86626319 321.6431247 148 309.5 C141.15509712 295.33109783 134.34409773 281.14605658 127.54101562 266.95703125 C121.3918447 254.13325957 115.22537399 241.31802621 109.03765869 228.51281738 C104.73037649 219.5979836 100.44650221 210.67227306 96.18115234 201.73730469 C92.49578375 194.02311851 88.78216629 186.32268829 85.0625 178.625 C78.19609177 164.41474739 71.36423971 150.18806621 64.54101562 135.95703125 C58.71007124 123.79690425 52.86626319 111.6431247 47 99.5 C40.15509712 85.33109783 33.34409773 71.14605658 26.54101562 56.95703125 C25.56201081 54.91536834 24.58284291 52.87378364 23.60351562 50.83227539 C22.62262093 48.78739502 21.64214796 46.7423123 20.66210938 44.69702148 C18.18040665 39.52260624 15.68884696 34.35324158 13.17739868 29.19320679 C11.88926651 26.54653398 10.60359328 23.89866906 9.31781006 21.25085449 C8.6956767 19.97178987 8.07220983 18.69337288 7.44732666 17.41564941 C6.57357317 15.62896542 5.7046676 13.83991313 4.8359375 12.05078125 C4.33626465 11.02637939 3.8365918 10.00197754 3.32177734 8.9465332 C2 6 2 6 0 0 Z " fill="#FFFEFE" transform="translate(325,616)"/>
<path d="M0 0 C35.31 0 70.62 0 107 0 C107 313.83 107 627.66 107 951 C71.69 951 36.38 951 0 951 C0 637.17 0 323.34 0 0 Z " fill="#FFFEFE" transform="translate(1152,260)"/>
<path d="M0 0 C0.90520071 0.00184359 1.81040142 0.00368717 2.74303246 0.00558662 C3.78072273 0.0028373 4.81841301 0.00008797 5.88754845 -0.00274467 C7.60197388 0.00804115 7.60197388 0.00804115 9.35103416 0.01904488 C11.15100601 0.0186068 11.15100601 0.0186068 12.98734093 0.01815987 C16.28266962 0.01931654 19.57774939 0.02936419 22.873034 0.04330778 C26.31502395 0.05578909 29.75701702 0.05698358 33.19902611 0.0593586 C39.7190712 0.06558103 46.23904942 0.08200213 52.75906503 0.10205758 C60.18096804 0.12439287 67.60287421 0.13540403 75.02480245 0.14544845 C90.29422964 0.16636773 105.56359009 0.20155848 120.83296776 0.24609566 C118.92981791 4.3261625 116.22462351 7.45220301 113.27046776 10.80859566 C112.17573137 12.06815569 111.08198978 13.32858099 109.98921776 14.58984566 C109.18097557 15.52183784 109.18097557 15.52183784 108.35640526 16.47265816 C106.28512806 18.88383725 104.27375767 21.34077475 102.27046776 23.80859566 C98.54545625 28.39581598 94.7432019 32.9104772 90.91646385 37.41259956 C88.03738932 40.80583041 85.20085284 44.22886286 82.39546776 47.68359566 C78.43853358 52.5465899 74.36860834 57.30309769 70.27681541 62.052248 C66.48133409 66.46641332 62.78018863 70.94942764 59.11031151 75.46875191 C56.55092722 78.59005933 53.94702985 81.67059596 51.33296776 84.74609566 C47.96013187 88.71513109 44.6212013 92.70626587 41.33296776 96.74609566 C35.79104677 103.55023352 30.09987852 110.22585444 24.41695213 116.91211128 C18.93026261 123.37016492 13.49519647 129.86107182 8.14546776 136.43359566 C5.1092941 140.12623929 2.01446806 143.76731354 -1.08109474 147.41015816 C-3.97948047 150.82669106 -6.83858325 154.27114403 -9.66703224 157.74609566 C-13.4155587 162.35142816 -17.23787471 166.8881401 -21.08329201 171.41235542 C-23.96248544 174.80563675 -26.79907461 178.22877351 -29.60453224 181.68359566 C-33.56146642 186.5465899 -37.63139166 191.30309769 -41.72318459 196.052248 C-45.51866591 200.46641332 -49.21981137 204.94942764 -52.88968849 209.46875191 C-55.44907278 212.59005933 -58.05297015 215.67059596 -60.66703224 218.74609566 C-64.78692678 223.59424361 -68.83499319 228.49455571 -72.85062599 233.42968941 C-75.4449046 236.5839472 -78.08307897 239.69813908 -80.72953224 242.80859566 C-85.31752751 248.20279585 -89.7843993 253.68304009 -94.16703224 259.24609566 C-92.83260829 262.12735559 -91.32405718 264.4595952 -89.29593849 266.89843941 C-88.72697853 267.58607368 -88.15801857 268.27370796 -87.5718174 268.98217964 C-86.9638633 269.70864693 -86.35590919 270.43511421 -85.72953224 271.18359566 C-85.10353127 271.93777779 -84.47753029 272.69195992 -83.83255959 273.46899605 C-79.56247243 278.60428911 -75.25112815 283.70420173 -70.92435646 288.79174995 C-67.68980049 292.6031808 -64.5552267 296.48292538 -61.44828224 300.39843941 C-53.76559039 309.98864893 -45.89376327 319.42736016 -37.92948341 328.78442574 C-34.62421563 332.67784126 -31.43181067 336.64957207 -28.26078224 340.65234566 C-25.77892184 343.72688915 -23.22854711 346.7378861 -20.66703224 349.74609566 C-16.77627609 354.3153488 -12.98774303 358.94782138 -9.26078224 363.65234566 C-6.77891877 366.72689294 -4.22844631 369.73779658 -1.66703224 372.74609566 C2.1538939 377.23612109 5.88669166 381.77960529 9.55171776 386.39843941 C17.23440961 395.98864893 25.10623673 405.42736016 33.07051659 414.78442574 C36.37578437 418.67784126 39.56818933 422.64957207 42.73921776 426.65234566 C45.22108123 429.72689294 47.77155369 432.73779658 50.33296776 435.74609566 C54.1538939 440.23612109 57.88669166 444.77960529 61.55171776 449.39843941 C69.23440961 458.98864893 77.10623673 468.42736016 85.07051659 477.78442574 C88.37578437 481.67784126 91.56818933 485.64957207 94.73921776 489.65234566 C97.22107816 492.72688915 99.77145289 495.7378861 102.33296776 498.74609566 C106.22372391 503.3153488 110.01225697 507.94782138 113.73921776 512.65234566 C116.22108123 515.72689294 118.77155369 518.73779658 121.33296776 521.74609566 C125.1538939 526.23612109 128.88669166 530.77960529 132.55171776 535.39843941 C140.23440961 544.98864893 148.10623673 554.42736016 156.07051659 563.78442574 C159.36871742 567.6695168 162.55652558 571.63068128 165.71578026 575.62890816 C167.35150243 577.65092635 169.00905112 579.63829531 170.70015526 581.61328316 C171.19773338 582.19465034 171.69531151 582.77601753 172.20796776 583.37500191 C173.18607314 584.5135777 174.16768707 585.64915163 175.15328026 586.78125191 C177.48120916 589.49047951 179.31779703 592.02105778 180.83296776 595.24609566 C163.25649425 595.50341247 145.68061098 595.69720326 128.10268307 595.81602955 C119.94027759 595.87267746 111.7790444 595.94985982 103.61739159 596.07592964 C96.50100161 596.18580101 89.38546071 596.25658894 82.26824611 596.2810691 C78.50148891 596.29537393 74.73715994 596.32881688 70.97118378 596.40912628 C67.42040366 596.48422772 63.87303214 596.50674399 60.3215332 596.49028015 C58.40840641 596.49471425 56.49564518 596.55369957 54.58348656 596.61471748 C49.36607904 596.54651118 46.13792334 596.39263776 42.12649918 592.86817551 C39.83353187 590.08673658 37.82088229 587.25028988 35.83296776 584.24609566 C34.64310722 582.76234099 33.43828035 581.2902342 32.20796776 579.83984566 C31.37301781 578.82688423 31.37301781 578.82688423 30.52120018 577.79345894 C29.68552513 576.78001411 29.68552513 576.78001411 28.83296776 575.74609566 C22.79732874 568.42167639 16.78202431 561.08106223 10.77828026 553.73047066 C5.5298358 547.30929685 0.26052397 540.90557086 -5.01346779 534.505373 C-8.93956062 529.73982824 -12.85402088 524.96500508 -16.76078224 520.18359566 C-19.88879377 516.36498418 -23.02788141 512.55555143 -26.16703224 508.74609566 C-30.70916356 503.23408006 -35.24164025 497.71448586 -39.76078224 492.18359566 C-42.88879377 488.36498418 -46.02788141 484.55555143 -49.16703224 480.74609566 C-53.70916356 475.23408006 -58.24164025 469.71448586 -62.76078224 464.18359566 C-65.88879377 460.36498418 -69.02788141 456.55555143 -72.16703224 452.74609566 C-76.70916356 447.23408006 -81.24164025 441.71448586 -85.76078224 436.18359566 C-88.88879377 432.36498418 -92.02788141 428.55555143 -95.16703224 424.74609566 C-99.70916356 419.23408006 -104.24164025 413.71448586 -108.76078224 408.18359566 C-111.88879377 404.36498418 -115.02788141 400.55555143 -118.16703224 396.74609566 C-122.70916356 391.23408006 -127.24164025 385.71448586 -131.76078224 380.18359566 C-134.88879377 376.36498418 -138.02788141 372.55555143 -141.16703224 368.74609566 C-145.70916356 363.23408006 -150.24164025 357.71448586 -154.76078224 352.18359566 C-157.88879377 348.36498418 -161.02788141 344.55555143 -164.16703224 340.74609566 C-168.70916356 335.23408006 -173.24164025 329.71448586 -177.76078224 324.18359566 C-180.88879377 320.36498418 -184.02788141 316.55555143 -187.16703224 312.74609566 C-191.70566876 307.2383211 -196.23618172 301.7242296 -200.74906349 296.19531441 C-202.6985183 293.81754643 -204.65510416 291.44623422 -206.61625099 289.07812691 C-207.23242287 288.33304878 -207.84859474 287.58797066 -208.48343849 286.82031441 C-209.69416739 285.35682374 -210.90631403 283.8945043 -212.12015724 282.43359566 C-215.94601733 277.80596079 -219.60774733 273.08170207 -223.16703224 268.24609566 C-219.09216118 262.71597946 -214.86313395 257.3465842 -210.47953224 252.05859566 C-209.87157814 251.3224604 -209.26362404 250.58632515 -208.63724709 249.82788277 C-204.43985262 244.75506942 -200.1973722 239.72220086 -195.92997169 234.70825386 C-192.62444669 230.81475331 -189.43195317 226.84279913 -186.26078224 222.83984566 C-183.77891877 219.76529837 -181.22844631 216.75439474 -178.66703224 213.74609566 C-174.8461061 209.25607023 -171.11330834 204.71258603 -167.44828224 200.09375191 C-159.76559039 190.50354238 -151.89376327 181.06483116 -143.92948341 171.70776558 C-140.62421563 167.81435006 -137.43181067 163.84261925 -134.26078224 159.83984566 C-131.3162014 156.19208133 -128.27251692 152.63155586 -125.23343849 149.06250191 C-122.48928691 145.83185254 -119.79955415 142.56911512 -117.16703224 139.24609566 C-113.61848078 134.7667766 -109.93766349 130.41269529 -106.23343849 126.06250191 C-103.48928691 122.83185254 -100.79955415 119.56911512 -98.16703224 116.24609566 C-94.61848078 111.7667766 -90.93766349 107.41269529 -87.23343849 103.06250191 C-84.48928691 99.83185254 -81.79955415 96.56911512 -79.16703224 93.24609566 C-75.61848078 88.7667766 -71.93766349 84.41269529 -68.23343849 80.06250191 C-65.48928691 76.83185254 -62.79955415 73.56911512 -60.16703224 70.24609566 C-56.61848078 65.7667766 -52.93766349 61.41269529 -49.23343849 57.06250191 C-46.48928691 53.83185254 -43.79955415 50.56911512 -41.16703224 47.24609566 C-38.07629707 43.34467585 -34.89324718 39.53518214 -31.66703224 35.74609566 C-27.85811237 31.27017897 -24.13569161 26.74206697 -20.48343849 22.13672066 C-17.28563764 18.14621032 -14.04047557 14.19542572 -10.79203224 10.24609566 C-10.17223488 9.4910273 -9.55243752 8.73595894 -8.91385841 7.95800972 C-8.3296714 7.24870308 -7.74548439 6.53939644 -7.14359474 5.80859566 C-6.61846291 5.17050972 -6.09333107 4.53242378 -5.55228615 3.87500191 C-2.4981734 0.28370119 -2.4981734 0.28370119 0 0 Z " fill="#FFFEFE" transform="translate(1494.1670322418213,615.7539043426514)"/>
</svg>
